<?xml version="1.0" encoding="UTF-8" standalone="no"?>
<svg
   xmlns:dc="http://purl.org/dc/elements/1.1/"
   xmlns:cc="http://creativecommons.org/ns#"
   xmlns:rdf="http://www.w3.org/1999/02/22-rdf-syntax-ns#"
   xmlns:svg="http://www.w3.org/2000/svg"
   xmlns="http://www.w3.org/2000/svg"
   viewBox="0 0 501.0376 751.00006"
   height="751.00006"
   width="501.0376"
   xml:space="preserve"
   version="1.1"
   id="svg4394"><metadata
     id="metadata4400"><rdf:RDF><cc:Work
         rdf:about=""><dc:format>image/svg+xml</dc:format><dc:type
           rdf:resource="http://purl.org/dc/dcmitype/StillImage" /><dc:title></dc:title></cc:Work></rdf:RDF></metadata><defs
     id="defs4398" /><g
     transform="matrix(1.25,0,0,-1.25,0,751.00006)"
     id="g4402"><g
       id="g4404"><path
         id="path4406"
         style="fill:#ffffff;fill-opacity:1;fill-rule:nonzero;stroke:none"
         d="m 25.016,600.402 c 0,0 -24.59,0.191 -24.618,-24.618 C 0.402,389.273 0.523,196.527 0.398,26.163 0.426,1.355 25.016,0.402 25.016,0.402 l 350.754,0 c 0,0 24.589,0.953 24.617,25.761 0.164,215.461 -0.211,355.364 0,549.621 -0.028,24.809 -24.617,24.618 -24.617,24.618 l -350.754,0 z" /><path
         id="path4408"
         style="fill:#154889;fill-opacity:1;fill-rule:nonzero;stroke:none"
         d="m 27.785,588.398 c 0,0 -15.406,0.422 -15.383,-15.383 l 0,-545.274 C 12.379,11.937 27.785,12.355 27.785,12.355 c 118.75,-0.157 239.52,-0.145 345.258,0 0,0 15.41,-0.418 15.387,15.386 l 0,545.274 c 0.023,15.805 -15.387,15.383 -15.387,15.383 -116.891,0.148 -232.715,0.152 -345.258,0 z" /><path
         id="path4410"
         style="fill:#ffffff;fill-opacity:1;fill-rule:nonzero;stroke:none"
         d="m 208.359,485.183 -70.457,0 0,-105.067 72.215,0 c 18.059,0 31.504,5.528 40.41,16.551 8.879,11.024 13.332,23.008 13.332,35.981 0,19.656 -6.984,34.117 -20.921,43.383 -8.958,6.097 -20.477,9.152 -34.579,9.152 z m -71.39,-283.449 -50.36,0 0.469,331.004 118.723,0.195 c 12.644,0 24.851,-1.348 36.562,-4.043 11.711,-2.695 23.887,-9.043 36.532,-18.996 9.843,-7.696 18.199,-18.254 25.043,-31.723 6.847,-13.469 10.281,-29.082 10.281,-46.867 0,-23.504 -8.633,-45.879 -25.895,-67.102 C 271.059,342.98 245.828,332.37 212.648,332.37 l -74.746,0 -0.933,-130.636 z" /><path
         id="path4412"
         style="fill:#000000;fill-opacity:1;fill-rule:nonzero;stroke:none"
         d="m 25.016,600.8 c -0.008,0 -6.231,0.051 -12.477,-3.047 C 6.293,594.652 0.012,588.32 0,575.784 0,389.273 0.121,196.527 0,26.163 0.012,13.628 6.285,7.019 12.527,3.628 18.77,0.238 25,-0.001 25,-0.001 l 350.785,0 c 0,0 6.231,0.239 12.473,3.629 6.242,3.391 12.515,10 12.527,22.535 0.168,215.461 -0.207,355.364 0,549.621 -0.012,12.536 -6.293,18.868 -12.539,21.969 -6.246,3.098 -12.473,3.047 -12.476,3.047 l -350.754,0 z m 0,-0.398 350.754,0 c 0,0 24.589,0.191 24.617,-24.618 -0.211,-194.257 0.168,-334.16 0,-549.621 C 400.359,1.355 375.77,0.402 375.77,0.402 l -350.754,0 c 0,0 -24.59,0.953 -24.618,25.761 0.125,170.364 0.004,363.11 0,549.621 0.028,24.809 24.618,24.618 24.618,24.618 z" /></g></g></svg>